<?xml version="1.0" encoding="UTF-8" standalone="no"?>
<!-- Created with Inkscape (http://www.inkscape.org/) -->

<svg
   version="1.1"
   id="svg1223"
   xml:space="preserve"
   width="551.03998"
   height="551.04535"
   viewBox="0 0 551.03997 551.04532"
   sodipodi:docname="pause.svg"
   inkscape:version="1.1.2 (0a00cf5339, 2022-02-04)"
   xmlns:inkscape="http://www.inkscape.org/namespaces/inkscape"
   xmlns:sodipodi="http://sodipodi.sourceforge.net/DTD/sodipodi-0.dtd"
   xmlns="http://www.w3.org/2000/svg"
   xmlns:svg="http://www.w3.org/2000/svg"><defs
     id="defs1227" /><sodipodi:namedview
     id="namedview1225"
     pagecolor="#ffffff"
     bordercolor="#666666"
     borderopacity="1.0"
     inkscape:pageshadow="2"
     inkscape:pageopacity="0.0"
     inkscape:pagecheckerboard="0"
     showgrid="false"
     inkscape:zoom="0.27085715"
     inkscape:cx="169.83122"
     inkscape:cy="1240.5063"
     inkscape:window-width="1852"
     inkscape:window-height="1056"
     inkscape:window-x="0"
     inkscape:window-y="0"
     inkscape:window-maximized="1"
     inkscape:current-layer="g1229" /><g
     id="g1229"
     inkscape:groupmode="layer"
     inkscape:label="ink_ext_XXXXXX"
     transform="matrix(1.3333333,0,0,-1.3333333,-2070.1996,1773.0317)"><g
       id="g2964"
       transform="translate(9.2897294,723.13184)"><path
         d="m 1696.83,488.534 h 23.5 c 5.45,0 9.92,-4.475 9.92,-9.889 V 321.449 c 0,-5.476 -4.47,-9.952 -9.92,-9.952 h -23.5 c -5.48,0 -9.95,4.476 -9.95,9.952 v 157.196 c 0,5.414 4.47,9.889 9.95,9.889 v 0"
         style="fill:#201d1d;fill-opacity:1;fill-rule:evenodd;stroke:none;stroke-width:0.1"
         id="path2315" /><path
         d="m 1779.73,488.534 h 23.5 c 5.48,0 9.89,-4.475 9.89,-9.889 V 321.449 c 0,-5.476 -4.41,-9.952 -9.89,-9.952 h -23.5 c -5.51,0 -9.98,4.476 -9.98,9.952 v 157.196 c 0,5.414 4.47,9.889 9.98,9.889 v 0"
         style="fill:#201d1d;fill-opacity:1;fill-rule:evenodd;stroke:none;stroke-width:0.1"
         id="path2317" /><path
         d="m 1750,590.712 c 105.34,0 190.71,-85.404 190.71,-190.712 0,-105.339 -85.37,-190.712 -190.71,-190.712 -105.34,0 -190.71,85.373 -190.71,190.712 0,105.308 85.37,190.712 190.71,190.712 z m 0,15.93 c 114.13,0 206.64,-92.51 206.64,-206.642 0,-114.133 -92.51,-206.642 -206.64,-206.642 -114.13,0 -206.64,92.509 -206.64,206.642 0,114.132 92.51,206.642 206.64,206.642 v 0"
         style="fill:#201d1d;fill-opacity:1;fill-rule:evenodd;stroke:none;stroke-width:0.1"
         id="path2319" /></g></g></svg>
