<?xml version="1.0" encoding="UTF-8" standalone="no"?>
<!-- Generator: Adobe Illustrator 19.2.1, SVG Export Plug-In . SVG Version: 6.00 Build 0)  -->

<svg
   version="1.1"
   id="Glyph"
   x="0px"
   y="0px"
   viewBox="0 0 28 28"
   enable-background="new 0 0 32 32"
   xml:space="preserve"
   sodipodi:docname="reload.svg"
   inkscape:version="1.1.2 (0a00cf5339, 2022-02-04)"
   width="28"
   height="28"
   xmlns:inkscape="http://www.inkscape.org/namespaces/inkscape"
   xmlns:sodipodi="http://sodipodi.sourceforge.net/DTD/sodipodi-0.dtd"
   xmlns="http://www.w3.org/2000/svg"
   xmlns:svg="http://www.w3.org/2000/svg"><defs
   id="defs872" /><sodipodi:namedview
   id="namedview870"
   pagecolor="#ededed"
   bordercolor="#666666"
   borderopacity="1.0"
   inkscape:pageshadow="2"
   inkscape:pageopacity="0"
   inkscape:pagecheckerboard="0"
   showgrid="false"
   inkscape:zoom="9.413359"
   inkscape:cx="30.913513"
   inkscape:cy="10.835665"
   inkscape:window-width="1852"
   inkscape:window-height="1056"
   inkscape:window-x="0"
   inkscape:window-y="0"
   inkscape:window-maximized="1"
   inkscape:current-layer="Glyph" />

<g
   id="g956"
   inkscape:export-filename="/home/micha/reload-pressed.png"
   inkscape:export-xdpi="500"
   inkscape:export-ydpi="500"
   transform="translate(-2,-2)"><path
     fill="#ff0000"
     d="M 27.765,15 C 26.599,15 25.919,14.425 25.689,13.525 24.585,9.204 20.66,6 16,6 13.316,6 10.799,7.082 8.941,8.941 l 2.847,2.847 C 12.235,12.235 11.918,13 11.286,13 H 2 V 3.714 C 2,3.081 2.765,2.765 3.212,3.212 L 6.117,6.117 C 8.718,3.515 12.242,2 16,2 22.582,2 28.105,6.568 29.591,12.699 29.876,13.871 28.971,15 27.765,15 Z"
     id="path865" /><path
     fill="#ff0000"
     d="m 30,19 v 9.286 c 0,0.633 -0.765,0.949 -1.212,0.502 L 25.883,25.883 C 23.282,28.485 19.758,30 16,30 9.418,30 3.895,25.432 2.409,19.301 2.124,18.129 3.029,17 4.235,17 5.401,17 6.081,17.575 6.311,18.475 7.415,22.796 11.34,26 16,26 c 2.684,0 5.201,-1.082 7.059,-2.941 L 20.212,20.212 C 19.765,19.765 20.082,19 20.714,19 Z"
     id="path867" /></g>
</svg>
