<?xml version="1.0" encoding="UTF-8" standalone="no"?>
<!-- Created with Inkscape (http://www.inkscape.org/) -->

<svg
   version="1.1"
   id="svg1223"
   xml:space="preserve"
   width="551.05334"
   height="551.04535"
   viewBox="0 0 551.05334 551.04532"
   sodipodi:docname="start.svg"
   inkscape:version="1.1.2 (0a00cf5339, 2022-02-04)"
   xmlns:inkscape="http://www.inkscape.org/namespaces/inkscape"
   xmlns:sodipodi="http://sodipodi.sourceforge.net/DTD/sodipodi-0.dtd"
   xmlns="http://www.w3.org/2000/svg"
   xmlns:svg="http://www.w3.org/2000/svg"><defs
     id="defs1227" /><sodipodi:namedview
     id="namedview1225"
     pagecolor="#ffffff"
     bordercolor="#666666"
     borderopacity="1.0"
     inkscape:pageshadow="2"
     inkscape:pageopacity="0.0"
     inkscape:pagecheckerboard="0"
     showgrid="false"
     inkscape:zoom="0.76609971"
     inkscape:cx="404.64707"
     inkscape:cy="454.24896"
     inkscape:window-width="1852"
     inkscape:window-height="1056"
     inkscape:window-x="0"
     inkscape:window-y="0"
     inkscape:window-maximized="1"
     inkscape:current-layer="g1229" /><g
     id="g1229"
     inkscape:groupmode="layer"
     inkscape:label="ink_ext_XXXXXX"
     transform="matrix(1.3333333,0,0,-1.3333333,-1386.0798,1781.4213)"><path
       d="m 1321.6299,1122.945 -143.9,-78.048 c -2.41,-1.127 -5.16,-0.877 -7.32,0.593 -1.88,1.252 -3.01,3.318 -3.13,5.602 v 0.939 c 0,51.637 0,103.18 0,154.817 v 0.876 c 0.12,2.254 1.25,4.35 3.13,5.602 2.16,1.502 4.91,1.69 7.32,0.627 v 0 l 143.9,-78.019 c 4.66,-2.786 4.66,-10.202 0,-12.989 v 0"
       style="fill:#201d1d;fill-opacity:1;fill-rule:evenodd;stroke:none;stroke-width:0.1"
       id="path2299" /><path
       d="m 1246.1999,1320.136 c 105.31,0 190.72,-85.404 190.72,-190.712 0,-105.339 -85.41,-190.712 -190.72,-190.712 -105.34,0 -190.71,85.373 -190.71,190.712 0,105.308 85.37,190.712 190.71,190.712 z m 0,15.93 c 114.11,0 206.65,-92.51 206.65,-206.642 0,-114.133 -92.54,-206.642 -206.65,-206.642 -114.13,0 -206.64,92.509 -206.64,206.642 0,114.132 92.51,206.642 206.64,206.642 v 0"
       style="fill:#201d1d;fill-opacity:1;fill-rule:evenodd;stroke:none;stroke-width:0.1"
       id="path2313" /></g></svg>
