<?xml version="1.0" encoding="UTF-8" standalone="no"?>
<!-- Created with Inkscape (http://www.inkscape.org/) -->

<svg
   version="1.1"
   id="svg1223"
   xml:space="preserve"
   width="551.05334"
   height="551.04535"
   viewBox="0 0 551.05334 551.04532"
   sodipodi:docname="stop.svg"
   inkscape:version="1.1.2 (0a00cf5339, 2022-02-04)"
   xmlns:inkscape="http://www.inkscape.org/namespaces/inkscape"
   xmlns:sodipodi="http://sodipodi.sourceforge.net/DTD/sodipodi-0.dtd"
   xmlns="http://www.w3.org/2000/svg"
   xmlns:svg="http://www.w3.org/2000/svg"><defs
     id="defs1227" /><sodipodi:namedview
     id="namedview1225"
     pagecolor="#ffffff"
     bordercolor="#666666"
     borderopacity="1.0"
     inkscape:pageshadow="2"
     inkscape:pageopacity="0.0"
     inkscape:pagecheckerboard="0"
     showgrid="false"
     inkscape:zoom="0.27085715"
     inkscape:cx="-483.64978"
     inkscape:cy="1214.6624"
     inkscape:window-width="1852"
     inkscape:window-height="1056"
     inkscape:window-x="0"
     inkscape:window-y="0"
     inkscape:window-maximized="1"
     inkscape:current-layer="g1229" /><g
     id="g1229"
     inkscape:groupmode="layer"
     inkscape:label="ink_ext_XXXXXX"
     transform="matrix(1.3333333,0,0,-1.3333333,-2723.7356,1748.4233)"><g
       id="g2968"
       transform="translate(6.1117486,704.6755)"><path
         d="m 2243.33,590.712 c 105.34,0 190.72,-85.404 190.72,-190.712 0,-105.339 -85.38,-190.712 -190.72,-190.712 -105.3,0 -190.71,85.373 -190.71,190.712 0,105.308 85.41,190.712 190.71,190.712 z m 0,15.93 c 114.14,0 206.65,-92.51 206.65,-206.642 0,-114.133 -92.51,-206.642 -206.65,-206.642 -114.13,0 -206.64,92.509 -206.64,206.642 0,114.132 92.51,206.642 206.64,206.642 v 0"
         style="fill:#201d1d;fill-opacity:1;fill-rule:evenodd;stroke:none;stroke-width:0.1"
         id="path2321" /><path
         d="m 2243.33,312.468 c 48.23,0 87.54,39.306 87.54,87.532 0,48.194 -39.31,87.532 -87.54,87.532 -48.19,0 -87.53,-39.338 -87.53,-87.532 0,-48.226 39.34,-87.532 87.53,-87.532 v 0"
         style="fill:#201d1d;fill-opacity:1;fill-rule:evenodd;stroke:none;stroke-width:0.1"
         id="path2327" /></g></g></svg>
