<?xml version="1.0" encoding="UTF-8" standalone="no"?>
<!-- Generator: Adobe Illustrator 21.1.0, SVG Export Plug-In . SVG Version: 6.00 Build 0)  -->

<svg
   version="1.1"
   id="Layer_1"
   x="0px"
   y="0px"
   viewBox="0 0 126 82"
   xml:space="preserve"
   sodipodi:docname="sound-off.svg"
   width="126"
   height="82"
   inkscape:version="1.1.2 (0a00cf5339, 2022-02-04)"
   xmlns:inkscape="http://www.inkscape.org/namespaces/inkscape"
   xmlns:sodipodi="http://sodipodi.sourceforge.net/DTD/sodipodi-0.dtd"
   xmlns="http://www.w3.org/2000/svg"
   xmlns:svg="http://www.w3.org/2000/svg"
   xmlns:rdf="http://www.w3.org/1999/02/22-rdf-syntax-ns#"
   xmlns:cc="http://creativecommons.org/ns#"
   xmlns:dc="http://purl.org/dc/elements/1.1/"><defs
   id="defs85" /><sodipodi:namedview
   id="namedview83"
   pagecolor="#ffffff"
   bordercolor="#666666"
   borderopacity="1.0"
   inkscape:pageshadow="2"
   inkscape:pageopacity="0.0"
   inkscape:pagecheckerboard="0"
   showgrid="false"
   inkscape:zoom="3.0262487"
   inkscape:cx="27.426695"
   inkscape:cy="43.948801"
   inkscape:window-width="1852"
   inkscape:window-height="1056"
   inkscape:window-x="0"
   inkscape:window-y="0"
   inkscape:window-maximized="1"
   inkscape:current-layer="Layer_1" />
<style
   type="text/css"
   id="style2">
	.st0{fill:#020202;}
</style>
<title
   id="title4">47 Web Icon Set 23 solid_</title>
<path
   class="st0"
   d="m 108,39 v 4 c 0,0.6 0.4,1 1,1 0.6,0 1,-0.4 1,-1 v -4 c 0,-0.6 -0.4,-1 -1,-1 -0.6,0 -1,0.4 -1,1 z"
   id="path6" />
<path
   class="st0"
   d="m 120.1,39 v 4 c 0,0.6 0.4,1 1,1 0.6,0 1,-0.4 1,-1 v -4 c 0,-0.6 -0.4,-1 -1,-1 -0.6,0 -1,0.4 -1,1 z"
   id="path8" />
<path
   class="st0"
   d="m 124,39 v 4 c 0,0.6 0.4,1 1,1 0.6,0 1,-0.4 1,-1 v -4 c 0,-0.6 -0.4,-1 -1,-1 -0.6,0 -1,0.4 -1,1 z"
   id="path10" />
<path
   class="st0"
   d="m 112,39 v 4 c 0,0.6 0.4,1 1,1 0.6,0 1,-0.4 1,-1 v -4 c 0,-0.6 -0.4,-1 -1,-1 -0.6,0 -1,0.4 -1,1 z"
   id="path12" />
<path
   class="st0"
   d="m 94,43 v -4 c 0,-0.6 -0.4,-1 -1,-1 -0.6,0 -1,0.4 -1,1 v 4 c 0,0.6 0.4,1 1,1 0.6,0 1,-0.4 1,-1 z"
   id="path14" />
<path
   class="st0"
   d="m 44,17 v 48 c 0,0.6 0.4,1 1,1 0.6,0 1,-0.4 1,-1 V 17 c 0,-0.6 -0.4,-1 -1,-1 -0.6,0 -1,0.4 -1,1 z"
   id="path16" />
<path
   class="st0"
   d="M 26,47 V 35 c 0,-0.6 -0.4,-1 -1,-1 -0.6,0 -1,0.4 -1,1 v 12 c 0,0.6 0.4,1 1,1 0.6,0 1,-0.4 1,-1 z"
   id="path18" />
<path
   class="st0"
   d="m 22,45 v -8 c 0,-0.6 -0.4,-1 -1,-1 -0.6,0 -1,0.4 -1,1 v 8 c 0,0.6 0.4,1 1,1 0.6,0 1,-0.4 1,-1 z"
   id="path20" />
<path
   class="st0"
   d="m 18,43 v -4 c 0,-0.6 -0.4,-1 -1,-1 -0.6,0 -1,0.4 -1,1 v 4 c 0,0.6 0.4,1 1,1 0.6,0 1,-0.4 1,-1 z"
   id="path22" />
<path
   class="st0"
   d="m 96,28 v 26 c 0,0.6 0.4,1 1,1 0.6,0 1,-0.4 1,-1 V 28 c 0,-0.6 -0.4,-1 -1,-1 -0.6,0 -1,0.4 -1,1 z"
   id="path24" />
<path
   class="st0"
   d="m 100,32 v 18 c 0,0.6 0.4,1 1,1 0.6,0 1,-0.4 1,-1 V 32 c 0,-0.6 -0.4,-1 -1,-1 -0.6,0 -1,0.4 -1,1 z"
   id="path26" />
<path
   class="st0"
   d="m 104,36 v 10 c 0,0.6 0.4,1 1,1 0.6,0 1,-0.4 1,-1 V 36 c 0,-0.6 -0.4,-1 -1,-1 -0.6,0 -1,0.4 -1,1 z"
   id="path28" />
<path
   class="st0"
   d="m 116,36 v 10 c 0,0.6 0.4,1 1,1 0.6,0 1,-0.4 1,-1 V 36 c 0,-0.6 -0.4,-1 -1,-1 -0.6,0 -1,0.4 -1,1 z"
   id="path30" />
<path
   class="st0"
   d="m 9.1,38 c -0.6,0 -1,0.4 -1,1 v 4 c 0,0.6 0.4,1 1,1 0.6,0 1,-0.4 1,-1 v -4 c 0,-0.6 -0.4,-1 -1,-1 z"
   id="path32" />
<path
   class="st0"
   d="m 14,43 v -4 c 0,-0.6 -0.4,-1 -1,-1 -0.6,0 -1,0.4 -1,1 v 4 c 0,0.6 0.4,1 1,1 0.6,0 1,-0.4 1,-1 z"
   id="path34" />
<path
   class="st0"
   d="M 6,46 V 36 C 6,35.4 5.6,35 5,35 4.4,35 4,35.4 4,36 v 10 c 0,0.6 0.4,1 1,1 0.6,0 1,-0.4 1,-1 z"
   id="path36" />
<path
   class="st0"
   d="M 2,50 V 32 C 2,31.4 1.6,31 1,31 0.4,31 0,31.4 0,32 v 18 c 0,0.6 0.4,1 1,1 0.6,0 1,-0.4 1,-1 z"
   id="path38" />
<path
   class="st0"
   d="m 48,68 c 0,0.6 0.4,1 1,1 0.6,0 1,-0.4 1,-1 V 18.1 c -0.8,-0.1 -1.5,-0.4 -2,-1 z"
   id="path40" />
<path
   class="st0"
   d="m 40,64 c 0,0.6 0.4,1 1,1 0.6,0 1,-0.4 1,-1 V 32.8 c -0.1,1.6 -0.8,3.2 -2,4.3 z"
   id="path42" />
<path
   class="st0"
   d="m 37,60 c 0.6,0 1,-0.4 1,-1 0,0 0,0 0,0 V 38.7 c -0.6,0.4 -1.3,0.7 -2,0.9 V 59 c 0,0.6 0.4,1 1,1 0,0 0,0 0,0 z"
   id="path44" />
<path
   class="st0"
   d="m 33,26 c -0.6,0 -1,0.4 -1,1 v 2.3 c 0.6,-0.4 1.3,-0.7 2,-0.9 V 27 c 0,-0.6 -0.5,-1 -1,-1 z"
   id="path46" />
<path
   class="st0"
   d="m 32,55 c 0,0.6 0.4,1 1,1 0.6,0 1,-0.4 1,-1 V 39.9 c -0.2,0 -0.4,0.1 -0.6,0.1 -0.5,0 -0.9,-0.1 -1.4,-0.2 z"
   id="path48" />
<path
   class="st0"
   d="m 29,31 c -0.6,0 -1,0.4 -1,1 v 18 c 0,0.6 0.4,1 1,1 0.6,0 1,-0.4 1,-1 V 39 C 30,39 29.9,38.9 29.9,38.9 28.7,38 28,36.6 28,35.2 c 0,-1.5 0.6,-2.9 1.6,-4 C 29.5,31.1 29.2,31 29,31 Z"
   id="path50" />
<path
   class="st0"
   d="m 56,11 v 58.9 l 2,-9.1 V 11 c 0,-0.6 -0.4,-1 -1,-1 -0.6,0 -1,0.4 -1,1 z"
   id="path52" />
<path
   class="st0"
   d="M 60,14 V 51.7 L 60.2,51 c 0.3,-1.2 0.9,-2.3 1.8,-3.2 V 14 c 0,-0.6 -0.4,-1 -1,-1 -0.6,0 -1,0.4 -1,1 z"
   id="path54" />
<path
   class="st0"
   d="m 64,17 v 29.5 c 0.6,-0.3 1.3,-0.4 2,-0.5 V 17 c 0,-0.6 -0.4,-1 -1,-1 -0.6,0 -1,0.4 -1,1 z"
   id="path56" />
<path
   class="st0"
   d="M 66,65 V 58 H 64.8 L 64,61.5 V 65 c 0,0.6 0.4,1 1,1 0.6,0 1,-0.4 1,-1 z"
   id="path58" />
<path
   class="st0"
   d="m 70,64 v -6 h -2 v 6 c 0,0.6 0.4,1 1,1 0.6,0 1,-0.4 1,-1 z"
   id="path60" />
<path
   class="st0"
   d="m 68,46 h 2 V 18 c 0,-0.6 -0.4,-1 -1,-1 -0.6,0 -1,0.4 -1,1 z"
   id="path62" />
<path
   class="st0"
   d="m 73,60 c 0.6,0 1,-0.4 1,-1 0,0 0,0 0,0 v -1 h -2 v 1 c 0,0.6 0.4,1 1,1 0,0 0,0 0,0 z"
   id="path64" />
<path
   class="st0"
   d="m 73,22 c -0.6,0 -1,0.4 -1,1 0,0 0,0 0,0 v 23 h 2 V 23 c 0,-0.6 -0.4,-1 -1,-1 0,0 0,0 0,0 z"
   id="path66" />
<path
   class="st0"
   d="m 77,26 c -0.6,0 -1,0.4 -1,1 0,0 0,0 0,0 v 19 h 2 V 27 c 0,-0.6 -0.4,-1 -1,-1 0,0 0,0 0,0 z"
   id="path68" />
<path
   class="st0"
   d="m 81,31 c -0.6,0 -1,0.4 -1,1 0,0 0,0 0,0 v 14 h 2 V 32 c 0,-0.6 -0.4,-1 -1,-1 0,0 0,0 0,0 z"
   id="path70" />
<path
   class="st0"
   d="m 85,34 c -0.6,0 -1,0.4 -1,1 0,0 0,0 0,0 v 11 h 2 V 35 c 0,-0.6 -0.4,-1 -1,-1 0,0 0,0 0,0 z"
   id="path72" />
<path
   class="st0"
   d="m 90,45 v -8 c 0,-0.6 -0.4,-1 -1,-1 -0.6,0 -1,0.4 -1,1 v 8 c 0,0.6 0.4,1 1,1 0.6,0 1,-0.4 1,-1 z"
   id="path74" />
<path
   class="st0"
   d="M 52,17.5 V 69 c 0.7,0.1 1.3,0.2 2,0.3 V 11 c 0,-0.6 -0.4,-1 -1,-1 -0.5,0 -0.9,0.3 -1,0.8 0.5,1.2 0.9,2.4 1.1,3.7 0.3,1.1 -0.1,2.3 -1.1,3 z"
   id="path76" />
<path
   class="st0"
   d="m 30,35.2 c 0,0.8 0.4,1.6 1,2.1 0.7,0.5 1.5,0.7 2.3,0.7 0.7,0 1.3,-0.1 1.9,-0.3 2.7,-0.8 4.7,-2.9 4.7,-4.9 0,0 0,0 0,0 0,0 0,0 0,0 V 7 c 1,1.2 2.5,1.9 4.1,2 2.1,0.4 4,0.7 5.2,6.4 0.1,0.5 0.7,0.9 1.2,0.8 0.5,-0.1 0.9,-0.7 0.8,-1.2 0,0 0,0 0,0 C 49.7,8 46.7,7.5 44.4,7.1 42.3,6.7 40.8,6.5 40,1.3 V 1 C 40,0.4 39.6,0 39,0 38.4,0 38,0.4 38,1 v 29.2 c -1.1,-0.3 -2.2,-0.3 -3.3,0.1 -2.6,0.8 -4.7,3 -4.7,4.9 z"
   id="path78" />
<path
   class="st0"
   d="M 92,49.6 C 91.1,48.5 89.8,47.9 88.5,48 h -22 c -2.1,0 -3.9,1.4 -4.4,3.4 l -4.8,21.7 c -1.8,-1.5 -4.1,-2.3 -6.5,-2.2 -4.4,0 -7.9,2.2 -7.9,5.1 0,2.9 3.5,5.1 7.9,5.1 4.3,0 7.7,-2.2 7.8,-4.9 L 63.2,56 h 27.1 l -3.8,18 c -1.8,-1.5 -4.1,-2.3 -6.5,-2.2 -4.4,0 -7.9,2.2 -7.9,5.1 0,2.9 3.5,5.1 7.9,5.1 4.3,0 7.7,-2.2 7.8,-4.9 l 5.1,-24 C 93.2,51.9 92.8,50.6 92,49.6 Z"
   id="path80" />
<g
   id="g2154"
   transform="translate(129.38754,23.338498)"><path
     style="fill:#ffffff;fill-rule:evenodd;stroke:#ffffff;stroke-width:7;stroke-linecap:round;stroke-linejoin:miter;stroke-miterlimit:4;stroke-dasharray:none;paint-order:stroke fill markers;stop-color:#000000"
     d="M -126.78657,-20.65229 -5.5749893,55.90699"
     id="path1112"
     sodipodi:nodetypes="cc" /><path
     style="fill:#000000;fill-rule:evenodd;stroke:#000000;stroke-width:3.535;stroke-linecap:round;stroke-linejoin:miter;stroke-miterlimit:4;stroke-dasharray:none;paint-order:stroke fill markers;stop-color:#000000"
     d="M -126.78657,-20.65229 -5.5749893,55.90699"
     id="path1112-6"
     sodipodi:nodetypes="cc" /></g><metadata
   id="metadata2172"><rdf:RDF><cc:Work
       rdf:about=""><dc:title>47 Web Icon Set 23 solid_</dc:title></cc:Work></rdf:RDF></metadata></svg>
