<?xml version="1.0" encoding="UTF-8" standalone="no"?>
<!-- Creator: CorelDRAW 2019 (64-Bit Evaluation Version) -->

<svg
   xml:space="preserve"
   width="1000mm"
   height="1000mm"
   version="1.1"
   style="shape-rendering:geometricPrecision; text-rendering:geometricPrecision; image-rendering:optimizeQuality; fill-rule:evenodd; clip-rule:evenodd"
   viewBox="0 0 100000 100000"
   id="svg10"
   sodipodi:docname="sound-off.svg"
   inkscape:version="1.1.2 (0a00cf5339, 2022-02-04)"
   xmlns:inkscape="http://www.inkscape.org/namespaces/inkscape"
   xmlns:sodipodi="http://sodipodi.sourceforge.net/DTD/sodipodi-0.dtd"
   xmlns="http://www.w3.org/2000/svg"
   xmlns:svg="http://www.w3.org/2000/svg"><sodipodi:namedview
   id="namedview12"
   pagecolor="#8e8e8e"
   bordercolor="#d9d9d9"
   borderopacity="1"
   inkscape:pageshadow="2"
   inkscape:pageopacity="0"
   inkscape:pagecheckerboard="true"
   inkscape:document-units="mm"
   showgrid="false"
   inkscape:zoom="0.13451675"
   inkscape:cx="2497.8301"
   inkscape:cy="2155.8653"
   inkscape:window-width="1852"
   inkscape:window-height="1056"
   inkscape:window-x="0"
   inkscape:window-y="0"
   inkscape:window-maximized="1"
   inkscape:current-layer="Layer_x0020_1"
   inkscape:object-paths="false"
   inkscape:snap-intersection-paths="false"
   inkscape:snap-others="true"
   inkscape:object-nodes="false"
   inkscape:snap-midpoints="true" />
 <defs
   id="defs4"><inkscape:path-effect
   effect="powerclip"
   id="path-effect1620"
   is_visible="true"
   lpeversion="1"
   inverse="true"
   flatten="false"
   hide_clip="false"
   message="Use fill-rule evenodd on &lt;b&gt;fill and stroke&lt;/b&gt; dialog if no flatten result after convert clip to paths." /><inkscape:path-effect
   effect="powerclip"
   id="path-effect1122"
   is_visible="true"
   lpeversion="1"
   inverse="true"
   flatten="false"
   hide_clip="false"
   message="Use fill-rule evenodd on &lt;b&gt;fill and stroke&lt;/b&gt; dialog if no flatten result after convert clip to paths." /><inkscape:path-effect
   effect="powerclip"
   id="path-effect2928"
   is_visible="true"
   lpeversion="1"
   inverse="true"
   flatten="false"
   hide_clip="false"
   message="Use fill-rule evenodd on &lt;b&gt;fill and stroke&lt;/b&gt; dialog if no flatten result after convert clip to paths." />
  <style
   type="text/css"
   id="style2">
   <![CDATA[
    .fil0 {fill:black}
   ]]>
  </style>
 <clipPath
   clipPathUnits="userSpaceOnUse"
   id="clipPath1614"><g
     id="g1618"
     style="display:none;fill:#cccccc"><path
       id="path1616"
       style="color:#000000;fill:#cccccc;stroke-width:8000;stroke-linecap:round;-inkscape-stroke:none;paint-order:stroke fill markers"
       d="M 97656.91,2142.3701 2336.7113,97633.575 M 97653.324,-1857.6289 A 4000,4000 0 0 0 94825.949,-683.52148 L -494.25,94807.684 a 4000,4000 0 0 0 5.07031,5656.856 4000,4000 0 0 0 5656.85159,-5.07 L 100487.87,4968.2617 a 4000,4000 0 0 0 -5.07,-5656.85154 4000,4000 0 0 0 -2829.476,-1169.03906 z M 2251.2087,2227.8682 97742.413,97548.077 M 2247.625,-1772.1309 a 4000,4000 0 0 0 -2827.37695,1174.10746 4000,4000 0 0 0 5.07031,5656.85154 L 94916.521,100379.04 a 4000,4000 0 0 0 5656.849,-5.07 4000,4000 0 0 0 -5.07,-5656.853 L 5077.0996,-603.0918 A 4000,4000 0 0 0 2247.625,-1772.1309 Z" /></g><path
     id="lpe_path-effect1620"
     style="fill:#cccccc"
     class="powerclip"
     d="M -28.883406,18.886882 H 99981.116 V 100028.87 H -28.883406 Z M 2336.7113,97633.575 97656.91,2142.3701 m -3.586,-3999.999 A 4000,4000 0 0 0 94825.949,-683.52148 L -494.25,94807.684 a 4000,4000 0 0 0 5.07031,5656.856 4000,4000 0 0 0 5656.85159,-5.07 L 100487.87,4968.2617 a 4000,4000 0 0 0 -5.07,-5656.85154 4000,4000 0 0 0 -2829.476,-1169.03906 z M 97742.413,97548.077 2251.2087,2227.8682 m -3.5837,-3999.9991 a 4000,4000 0 0 0 -2827.37695,1174.10746 4000,4000 0 0 0 5.07031,5656.85154 L 94916.521,100379.04 a 4000,4000 0 0 0 5656.849,-5.07 4000,4000 0 0 0 -5.07,-5656.853 L 5077.0996,-603.0918 A 4000,4000 0 0 0 2247.625,-1772.1309 Z" /></clipPath></defs>
 <g
   id="Layer_x0020_1"
   inkscape:label="Layer 1">
  <path
   class="fil0"
   d="M 82225.77,31315.47 C 86395.68,22173.31 86953.08,14255.28 82906.64,9719.58 78860.2,5183.88 71038.97,4968.06 61669.03,8286.69 52468.42,11541.65 41712.02,18214.29 31583.58,27533.37 v 0 -3.55 c -3450.22,3173.59 -6611.17,6456.84 -9436.98,9757.79 -2917.53,3407.08 -5485.79,6838.93 -7655.42,10207.1 -2451.84,3799.8 -4395.69,7504.08 -5764.49,10978.39 -1375.87,3481.38 -2183.74,6746.94 -2363.66,9665.78 -119.95,1945.9 38.81,3739.66 493.9,5342.37 451.56,1588.56 1188.89,2982.52 2229.6,4150.06 4046.44,4535.71 11867.67,4751.52 21237.61,1432.89 9204.14,-3258.5 19960.54,-9931.14 30085.45,-19243.13 v -3.54 C 70530.97,50501.99 78129.94,40291.35 82225.77,31315.47 Z M 69895.95,65191.73 v 0 c 366.89,435.17 694.98,866.81 1023.07,1298.45 518.59,679.29 1040.72,1365.66 1901.51,2289.08 557.4,597.92 1040.71,891.57 1612.22,845.58 536.23,-42.45 1030.13,-392.72 1619.29,-1086.17 3492.56,-4107.61 6124.33,-8434.57 8047.01,-12733.23 2208.42,-4939.04 3478.44,-9832.08 4046.44,-14321.79 271.64,-2140.48 -1270.03,-2239.55 -2268.41,-396.25 -1957.96,3615.83 -4543.86,7634.98 -7436.7,11459.55 -2645.89,3495.54 -5545.77,6831.87 -8463.29,9563.2 -1495.8,1401.04 -716.15,2327.99 -81.14,3081.58 z m 13684.5,-17817.32 c 952.53,-1471.8 1838.01,-2929.46 2638.83,-4334.04 737.32,-1298.45 684.4,-1379.82 423.34,173.36 -645.59,3845.8 -1820.36,7946.33 -3665.43,12071.62 -1873.28,4188.99 -4441.55,8409.81 -7860.04,12428.96 -366.89,431.64 -610.32,643.92 -779.65,658.07 -134.06,10.61 -328.09,-145.05 -617.37,-456.4 -250.48,-265.35 -469.2,-516.54 -673.82,-753.59 v 0 c 5429.36,-6389.6 8738.48,-13295.77 10534.14,-19787.98 z M 96651.12,62860.2 c -225.78,-24.76 -430.4,141.52 -451.56,371.49 v 0 c -38.81,385.63 -98.78,774.82 -179.92,1174.61 -81.14,399.8 -186.99,817.27 -313.99,1252.44 -67.03,222.89 56.45,456.4 275.18,523.63 218.73,67.22 448.03,-60.15 515.06,-279.51 130.53,-438.7 239.89,-880.95 328.09,-1323.2 88.2,-428.1 151.7,-849.12 194.03,-1259.53 24.7,-229.96 -137.58,-435.17 -366.89,-459.93 z m -1270.03,4953.19 c -208.14,-91.98 -451.56,3.54 -543.29,215.82 v 0 c -557.4,1280.76 -1262.96,2618.11 -2099.06,3983.78 -864.33,1411.66 -1866.23,2851.61 -2970.45,4288.05 -141.11,180.43 -109.36,445.79 70.56,587.3 179.92,141.52 437.45,109.68 578.56,-70.76 1125.38,-1464.73 2141.41,-2929.46 3019.84,-4362.34 850.21,-1390.44 1576.94,-2759.64 2151.98,-4089.93 91.73,-212.28 0,-459.94 -208.14,-551.92 z M 59908.63,81119.77 c 45.86,-481.17 -289.28,-827.89 -1044.24,-1238.3 v 0 c -1792.14,-976.48 -3520.79,-2373.99 -5203.57,-3545.06 -1008.96,-700.52 -1541.66,-700.52 -2635.3,67.22 -1619.28,1132.16 -4088.77,2565.04 -6678.2,3930.7 -2790.53,1468.27 -5711.58,2851.62 -7874.15,3700.74 -1594.59,626.23 -1506.4,1885.75 218.73,2158.17 3393.79,534.24 7013.34,417.48 10685.83,-251.2 3820.65,-696.98 7701.28,-1991.89 11437.27,-3767.95 670.29,-321.96 1051.29,-587.3 1093.63,-1054.32 z m -1897.98,45.99 c -3556.07,1662.85 -7235.61,2876.39 -10862.23,3537.99 -3086.86,562.54 -6124.33,721.75 -9006.58,413.95 -952.52,-102.61 -889.01,-38.93 -63.5,-392.72 1157.13,-491.78 1451.08,-604.01 2784.61,-1251.46 5529.88,220.28 11249.07,-1463.9 15803.53,-3484.49 613.84,413.95 903.2,592.96 1375.93,865.39 366.89,212.28 391.58,113.21 -31.76,311.34 z m 6286.62,-37325.8 c 52.92,-222.89 -81.14,-449.32 -303.39,-505.93 -1379.39,-343.19 -3026.89,-237.05 -4773.18,275.96 -1707.47,502.39 -3513.73,1393.97 -5267.07,2639.33 -186.98,130.91 -232.84,392.72 -102.31,583.77 130.53,187.52 388.06,237.04 575.04,102.6 v 0 c 1679.26,-1192.3 3404.37,-2044.96 5023.65,-2519.05 1612.23,-474.09 3111.56,-573.15 4349.83,-268.89 222.26,53.08 444.51,-84.9 497.43,-307.79 z m 35398.37,17318.46 c -271.64,-990.63 -744.37,-1882.21 -1432.3,-2657.02 l -8375.1,-9382.76 v 0 c -84.67,-95.52 -183.45,-194.59 -299.87,-300.73 -28.22,-28.3 -59.97,-53.07 -88.2,-81.38 1619.28,-6389.61 1820.36,-13026.88 194.03,-19487.25 C 94075.78,18868.81 94425.04,9868.16 89708.31,4582.41 84846.94,-862.56 75593.4,-1262.35 64561.85,2491.46 53689.04,6195.73 41038.2,13936.85 29184.64,24840.95 17331.09,35745.04 8500.9,47767.13 3805.33,58388.18 -960.78,69164.9 -1475.85,78554.74 3381.99,83996.17 c 4593.25,5147.77 13113,5784.61 23350.8,2667.64 6935.74,2289.09 13726.84,2833.94 20249.82,1843.3 14.11,17.69 24.69,31.84 35.28,42.45 31.75,35.38 67.03,74.29 98.78,109.67 l 9056.02,9156.73 h -3.53 c 243.42,272.42 508.01,520.08 790.23,746.51 2906.94,2299.69 7524.89,1730.08 12700.23,-626.23 5030.7,-2289.08 10008.45,-5979.6 15039.16,-10603.76 3171.52,-2918.84 6124.33,-6099.5 8569.13,-9280.15 1128.91,-1471.8 2151.98,-2940.07 3033.95,-4383.57 857.26,-1397.5 1587.53,-2777.32 2166.09,-4114.68 186.98,-431.64 356.31,-852.66 508.01,-1263.07 155.22,-421.02 289.28,-827.89 405.7,-1224.14 130.53,-438.71 239.89,-888.04 335.14,-1340.9 88.2,-438.71 155.22,-863.27 197.57,-1280.76 127.01,-1171.07 59.98,-2274.92 -218.73,-3286.79 z M 4299.24,83154.12 C -198.77,78116.02 372.75,69217.97 4930.72,58904.72 9559.25,48435.81 18287.13,36565.85 30017.21,25774.98 41747.29,14984.11 54239.38,7331.43 64956.97,3687.3 75512.27,96.24 84289.55,393.43 88787.55,5431.53 c 4388.64,4914.26 3951.18,13500.97 -303.39,23492.26 -10.58,21.23 -17.64,38.92 -24.69,60.14 v 0 c -98.78,229.97 -197.56,463.48 -303.39,696.98 C 83527.54,40149.82 74799.66,52019.79 63069.58,62810.66 51339.5,73601.54 38847.41,81254.2 28129.83,84898.34 17578.04,88489.41 8800.77,88192.21 4299.24,83154.12 Z m 42757.45,4075.76 v 0 c -5884.44,930.49 -12005.25,573.15 -18253.06,-1238.3 10809.3,-3736.11 23350.8,-11438.32 35105.56,-22250.42 11500.77,-10578.6 20154.58,-22207.97 24948.92,-32591.97 1435.83,7054.75 677.34,14289.94 -1714.54,21125.34 -2808.16,8031.24 -7867.09,15514.09 -14270.12,21510.98 -6741.71,6315.31 -14217.21,10688.28 -22158.39,12694.32 -1150.07,290.11 -2310.73,530.7 -3481.98,721.75 -63.49,3.54 -119.94,10.61 -176.39,28.3 z m 1495.82,1011.86 c 825.51,-155.66 1643.97,-339.64 2458.9,-544.85 8145.79,-2059.11 15801.21,-6531.13 22694.62,-12987.97 6551.21,-6134.88 11726.55,-13791.09 14601.75,-22013.38 296.34,-842.04 564.45,-1691.16 811.4,-2547.35 1520.5,1974.19 850.21,5717.39 -1495.81,10224.79 -2511.82,4829.35 -6935.73,10454.76 -12675.54,15736.99 -5739.8,5278.68 -11691.27,9198.77 -16672.59,11261.43 -4293.39,1776.07 -7803.59,2179.4 -9722.73,870.34 z m 50137.7,-23920.36 c -38.81,378.57 -98.78,764.21 -176.39,1153.39 -77.61,385.63 -183.45,799.58 -310.45,1234.75 -112.89,382.11 -239.89,764.2 -377.48,1142.77 -148.17,399.8 -306.92,799.59 -479.79,1199.38 -550.34,1270.14 -1255.91,2596.89 -2088.49,3955.48 -860.79,1408.12 -1855.64,2841.01 -2956.33,4270.36 -2398.94,3120.51 -5302.36,6248.1 -8428.03,9124.48 -4942.51,4546.32 -9803.83,8159.02 -14711.06,10391.48 -4762.59,2165.25 -8939.55,2752.57 -11430.21,781.9 -222.25,-176.9 -433.92,-378.57 -635.01,-601.46 h -3.53 l -6988.7,-6842.87 c 0,0 0,0 0,0 h 0.01 v 0 c 2264.88,378.56 5252.96,-201.67 8636.16,-1602.71 5111.84,-2119.26 11193.85,-6113.65 17035.95,-11491.4 5842.11,-5377.75 10357.75,-11126.98 12936.61,-16083.71 1707.47,-3279.72 2568.26,-6241.02 2420.09,-8565.48 l 6209.01,6955.68 c 560.93,629.76 945.46,1351.51 1164.19,2147.57 232.84,859.74 289.28,1807.92 183.45,2830.39 z M 20230.98,49536.12 c -236.37,-159.21 -557.41,-91.98 -712.63,148.6 -1919.14,2971.91 -3439.64,5873.07 -4512.11,8593.78 -1075.99,2724.25 -1707.47,5282.22 -1852.11,7567.76 -17.64,290.12 197.56,537.78 483.31,555.47 285.75,17.69 529.18,-201.67 546.81,-488.24 v 0 c 134.06,-2168.79 744.37,-4617.08 1781.56,-7245.82 1051.3,-2664.1 2540.05,-5501.57 4413.34,-8409.8 155.22,-237.04 88.2,-562.53 -148.17,-721.75 z m 24970.07,20573.42 c -5316.47,3456.61 -10520.03,6081.81 -15289.67,7772.97 -8886.64,3145.26 -16224.55,3028.52 -19907.62,-1096.78 -917.24,-1026.02 -1566.36,-2253.7 -1961.48,-3651.21 -416.29,-1461.2 -557.41,-3109.9 -444.52,-4917.81 172.86,-2777.33 952.53,-5911.98 2278.99,-9276.61 1344.1,-3410.62 3249.15,-7040.61 5648.07,-10759.03 2134.35,-3308.03 4667.35,-6693.88 7556.64,-10069.13 2790.54,-3258.48 5916.21,-6502.81 9334.69,-9648.09 v -3.54 C 42421.11,19257.99 53022.28,12673.79 62081.78,9468.36 70968.42,6323.1 78306.33,6439.84 81989.4,10565.14 c 3683.07,4125.31 3076.28,11551.55 -881.96,20219.62 -2123.77,4656 -5210.63,9655.18 -9119.47,14686.2 -81.15,-452.86 -197.57,-891.57 -349.27,-1309.06 -310.45,-866.81 -762.01,-1645.16 -1361.74,-2317.38 -2109.65,-2363.38 -5630.43,-2978.99 -9616.9,-2066.19 -3870.04,884.5 -8202.24,3219.57 -12082.86,6785.87 -3880.63,3569.84 -6593.54,7719.89 -7838.87,11540.93 -1287.67,3937.78 -1026.61,7557.14 1079.52,9920.53 599.73,672.22 1315.88,1202.91 2127.28,1599.17 395.13,198.14 814.94,357.35 1255.92,484.71 z M 59573.48,58890.57 c -4251.05,3909.49 -8611.46,7348.41 -12911.9,10256.64 -790.23,-113.22 -1520.5,-329.04 -2176.67,-647.45 -666.77,-325.49 -1255.92,-760.66 -1746.29,-1312.6 -1788.61,-2002.5 -1972.06,-5172.54 -829.04,-8675.15 1181.82,-3622.9 3778.32,-7578.38 7503.72,-11003.16 3725.4,-3428.31 7856.51,-5660.79 11521.94,-6499.29 3549.01,-813.73 6635.87,-314.88 8424.49,1687.63 497.42,555.46 867.85,1195.84 1121.85,1903.43 246.95,686.37 384.53,1447.04 416.28,2257.24 v 0 c -3273.84,4058.08 -7073.33,8123.23 -11324.38,12032.71 z"
   id="path7"
   style="fill:#ffffff"
   clip-path="url(#clipPath1614)"
   inkscape:path-effect="#path-effect1620"
   inkscape:original-d="M82225.77 31315.47c4169.91,-9142.16 4727.31,-17060.19 680.87,-21595.89 -4046.44,-4535.7 -11867.67,-4751.52 -21237.61,-1432.89 -9200.61,3254.96 -19957.01,9927.6 -30085.45,19246.68l0 0 0 -3.55c-3450.22,3173.59 -6611.17,6456.84 -9436.98,9757.79 -2917.53,3407.08 -5485.79,6838.93 -7655.42,10207.1 -2451.84,3799.8 -4395.69,7504.08 -5764.49,10978.39 -1375.87,3481.38 -2183.74,6746.94 -2363.66,9665.78 -119.95,1945.9 38.81,3739.66 493.9,5342.37 451.56,1588.56 1188.89,2982.52 2229.6,4150.06 4046.44,4535.71 11867.67,4751.52 21237.61,1432.89 9204.14,-3258.5 19960.54,-9931.14 30085.45,-19243.13l0 -3.54c10121.38,-9315.54 17720.35,-19526.18 21816.18,-28502.06zm-12329.82 33876.26l0 0c366.89,435.17 694.98,866.81 1023.07,1298.45 518.59,679.29 1040.72,1365.66 1901.51,2289.08 557.4,597.92 1040.71,891.57 1612.22,845.58 536.23,-42.45 1030.13,-392.72 1619.29,-1086.17 3492.56,-4107.61 6124.33,-8434.57 8047.01,-12733.23 2208.42,-4939.04 3478.44,-9832.08 4046.44,-14321.79 271.64,-2140.48 -1270.03,-2239.55 -2268.41,-396.25 -1957.96,3615.83 -4543.86,7634.98 -7436.7,11459.55 -2645.89,3495.54 -5545.77,6831.87 -8463.29,9563.2 -1495.8,1401.04 -716.15,2327.99 -81.14,3081.58l0 0zm13684.5 -17817.32c952.53,-1471.8 1838.01,-2929.46 2638.83,-4334.04 737.32,-1298.45 684.4,-1379.82 423.34,173.36 -645.59,3845.8 -1820.36,7946.33 -3665.43,12071.62 -1873.28,4188.99 -4441.55,8409.81 -7860.04,12428.96 -366.89,431.64 -610.32,643.92 -779.65,658.07 -134.06,10.61 -328.09,-145.05 -617.37,-456.4 -250.48,-265.35 -469.2,-516.54 -673.82,-753.59l0 0c5429.36,-6389.6 8738.48,-13295.77 10534.14,-19787.98zm13070.67 15485.79c-225.78,-24.76 -430.4,141.52 -451.56,371.49l0 0c-38.81,385.63 -98.78,774.82 -179.92,1174.61 -81.14,399.8 -186.99,817.27 -313.99,1252.44 -67.03,222.89 56.45,456.4 275.18,523.63 218.73,67.22 448.03,-60.15 515.06,-279.51 130.53,-438.7 239.89,-880.95 328.09,-1323.2 88.2,-428.1 151.7,-849.12 194.03,-1259.53 24.7,-229.96 -137.58,-435.17 -366.89,-459.93zm-1270.03 4953.19c-208.14,-91.98 -451.56,3.54 -543.29,215.82l0 0c-557.4,1280.76 -1262.96,2618.11 -2099.06,3983.78 -864.33,1411.66 -1866.23,2851.61 -2970.45,4288.05 -141.11,180.43 -109.36,445.79 70.56,587.3 179.92,141.52 437.45,109.68 578.56,-70.76 1125.38,-1464.73 2141.41,-2929.46 3019.84,-4362.34 850.21,-1390.44 1576.94,-2759.64 2151.98,-4089.93 91.73,-212.28 0,-459.94 -208.14,-551.92zm-35472.46 13306.38c45.86,-481.17 -289.28,-827.89 -1044.24,-1238.3l0 0c-1792.14,-976.48 -3520.79,-2373.99 -5203.57,-3545.06 -1008.96,-700.52 -1541.66,-700.52 -2635.3,67.22 -1619.28,1132.16 -4088.77,2565.04 -6678.2,3930.7 -2790.53,1468.27 -5711.58,2851.62 -7874.15,3700.74 -1594.59,626.23 -1506.4,1885.75 218.73,2158.17 3393.79,534.24 7013.34,417.48 10685.83,-251.2 3820.65,-696.98 7701.28,-1991.89 11437.27,-3767.95 670.29,-321.96 1051.29,-587.3 1093.63,-1054.32zm-1897.98 45.99c-3556.07,1662.85 -7235.61,2876.39 -10862.23,3537.99 -3086.86,562.54 -6124.33,721.75 -9006.58,413.95 -952.52,-102.61 -889.01,-38.93 -63.5,-392.72 1157.13,-491.78 1451.08,-604.01 2784.61,-1251.46 5529.88,220.28 11249.07,-1463.9 15803.53,-3484.49 613.84,413.95 903.2,592.96 1375.93,865.39 366.89,212.28 391.58,113.21 -31.76,311.34zm6286.62 -37325.8c52.92,-222.89 -81.14,-449.32 -303.39,-505.93 -1379.39,-343.19 -3026.89,-237.05 -4773.18,275.96 -1707.47,502.39 -3513.73,1393.97 -5267.07,2639.33 -186.98,130.91 -232.84,392.72 -102.31,583.77 130.53,187.52 388.06,237.04 575.04,102.6l0 0c1679.26,-1192.3 3404.37,-2044.96 5023.65,-2519.05 1612.23,-474.09 3111.56,-573.15 4349.83,-268.89 222.26,53.08 444.51,-84.9 497.43,-307.79zm35398.37 17318.46c-271.64,-990.63 -744.37,-1882.21 -1432.3,-2657.02l-8375.1 -9382.76 0 0c-84.67,-95.52 -183.45,-194.59 -299.87,-300.73 -28.22,-28.3 -59.97,-53.07 -88.2,-81.38 1619.28,-6389.61 1820.36,-13026.88 194.03,-19487.25 4381.58,-10380.47 4730.84,-19381.12 14.11,-24666.87 -4861.37,-5444.97 -14114.91,-5844.76 -25146.46,-2090.95 -10872.81,3704.27 -23523.65,11445.39 -35377.21,22349.49 -11853.55,10904.09 -20683.74,22926.18 -25379.31,33547.23 -4766.11,10776.72 -5281.18,20166.56 -423.34,25607.99 4593.25,5147.77 13113,5784.61 23350.8,2667.64 6935.74,2289.09 13726.84,2833.94 20249.82,1843.3 14.11,17.69 24.69,31.84 35.28,42.45 31.75,35.38 67.03,74.29 98.78,109.67l9056.02 9156.73 -3.53 0c243.42,272.42 508.01,520.08 790.23,746.51 2906.94,2299.69 7524.89,1730.08 12700.23,-626.23 5030.7,-2289.08 10008.45,-5979.6 15039.16,-10603.76 3171.52,-2918.84 6124.33,-6099.5 8569.13,-9280.15 1128.91,-1471.8 2151.98,-2940.07 3033.95,-4383.57 857.26,-1397.5 1587.53,-2777.32 2166.09,-4114.68 186.98,-431.64 356.31,-852.66 508.01,-1263.07 155.22,-421.02 289.28,-827.89 405.7,-1224.14 130.53,-438.71 239.89,-888.04 335.14,-1340.9 88.2,-438.71 155.22,-863.27 197.57,-1280.76 127.01,-1171.07 59.98,-2274.92 -218.73,-3286.79zm-95396.4 21995.7c-4498.01,-5038.1 -3926.49,-13936.15 631.48,-24249.4 4628.53,-10468.91 13356.41,-22338.87 25086.49,-33129.74 11730.08,-10790.87 24222.17,-18443.55 34939.76,-22087.68 10555.3,-3591.06 19332.58,-3293.87 23830.58,1744.23 4388.64,4914.26 3951.18,13500.97 -303.39,23492.26 -10.58,21.23 -17.64,38.92 -24.69,60.14l0 0c-98.78,229.97 -197.56,463.48 -303.39,696.98 -4628.54,10468.91 -13356.42,22338.88 -25086.5,33129.75 -11730.08,10790.88 -24222.17,18443.54 -34939.75,22087.68 -10551.79,3591.07 -19329.06,3293.87 -23830.59,-1744.22zm42757.45 4075.76l0 0c-5884.44,930.49 -12005.25,573.15 -18253.06,-1238.3 10809.3,-3736.11 23350.8,-11438.32 35105.56,-22250.42 11500.77,-10578.6 20154.58,-22207.97 24948.92,-32591.97 1435.83,7054.75 677.34,14289.94 -1714.54,21125.34 -2808.16,8031.24 -7867.09,15514.09 -14270.12,21510.98 -6741.71,6315.31 -14217.21,10688.28 -22158.39,12694.32 -1150.07,290.11 -2310.73,530.7 -3481.98,721.75 -63.49,3.54 -119.94,10.61 -176.39,28.3zm1495.82 1011.86c825.51,-155.66 1643.97,-339.64 2458.9,-544.85 8145.79,-2059.11 15801.21,-6531.13 22694.62,-12987.97 6551.21,-6134.88 11726.55,-13791.09 14601.75,-22013.38 296.34,-842.04 564.45,-1691.16 811.4,-2547.35 1520.5,1974.19 850.21,5717.39 -1495.81,10224.79 -2511.82,4829.35 -6935.73,10454.76 -12675.54,15736.99 -5739.8,5278.68 -11691.27,9198.77 -16672.59,11261.43 -4293.39,1776.07 -7803.59,2179.4 -9722.73,870.34l0 0zm50137.7 -23920.36c-38.81,378.57 -98.78,764.21 -176.39,1153.39 -77.61,385.63 -183.45,799.58 -310.45,1234.75 -112.89,382.11 -239.89,764.2 -377.48,1142.77 -148.17,399.8 -306.92,799.59 -479.79,1199.38 -550.34,1270.14 -1255.91,2596.89 -2088.49,3955.48 -860.79,1408.12 -1855.64,2841.01 -2956.33,4270.36 -2398.94,3120.51 -5302.36,6248.1 -8428.03,9124.48 -4942.51,4546.32 -9803.83,8159.02 -14711.06,10391.48 -4762.59,2165.25 -8939.55,2752.57 -11430.21,781.9 -222.25,-176.9 -433.92,-378.57 -635.01,-601.46l-3.53 0 -6988.7 -6842.87c0,0 0,0 0,0l0.01 0 0 0c2264.88,378.56 5252.96,-201.67 8636.16,-1602.71 5111.84,-2119.26 11193.85,-6113.65 17035.95,-11491.4 5842.11,-5377.75 10357.75,-11126.98 12936.61,-16083.71 1707.47,-3279.72 2568.26,-6241.02 2420.09,-8565.48l6209.01 6955.68c560.93,629.76 945.46,1351.51 1164.19,2147.57 232.84,859.74 289.28,1807.92 183.45,2830.39zm-78459.23 -14785.26c-236.37,-159.21 -557.41,-91.98 -712.63,148.6 -1919.14,2971.91 -3439.64,5873.07 -4512.11,8593.78 -1075.99,2724.25 -1707.47,5282.22 -1852.11,7567.76 -17.64,290.12 197.56,537.78 483.31,555.47 285.75,17.69 529.18,-201.67 546.81,-488.24l0 0c134.06,-2168.79 744.37,-4617.08 1781.56,-7245.82 1051.3,-2664.1 2540.05,-5501.57 4413.34,-8409.8 155.22,-237.04 88.2,-562.53 -148.17,-721.75zm24970.07 20573.42c-5316.47,3456.61 -10520.03,6081.81 -15289.67,7772.97 -8886.64,3145.26 -16224.55,3028.52 -19907.62,-1096.78 -917.24,-1026.02 -1566.36,-2253.7 -1961.48,-3651.21 -416.29,-1461.2 -557.41,-3109.9 -444.52,-4917.81 172.86,-2777.33 952.53,-5911.98 2278.99,-9276.61 1344.1,-3410.62 3249.15,-7040.61 5648.07,-10759.03 2134.35,-3308.03 4667.35,-6693.88 7556.64,-10069.13 2790.54,-3258.48 5916.21,-6502.81 9334.69,-9648.09l0 -3.54c10004.96,-9202.32 20606.13,-15786.52 29665.63,-18991.95 8886.64,-3145.26 16224.55,-3028.52 19907.62,1096.78 3683.07,4125.31 3076.28,11551.55 -881.96,20219.62 -2123.77,4656 -5210.63,9655.18 -9119.47,14686.2 -81.15,-452.86 -197.57,-891.57 -349.27,-1309.06 -310.45,-866.81 -762.01,-1645.16 -1361.74,-2317.38 -2109.65,-2363.38 -5630.43,-2978.99 -9616.9,-2066.19 -3870.04,884.5 -8202.24,3219.57 -12082.86,6785.87 -3880.63,3569.84 -6593.54,7719.89 -7838.87,11540.93 -1287.67,3937.78 -1026.61,7557.14 1079.52,9920.53 599.73,672.22 1315.88,1202.91 2127.28,1599.17 395.13,198.14 814.94,357.35 1255.92,484.71l0 0zm14372.43 -11218.97c-4251.05,3909.49 -8611.46,7348.41 -12911.9,10256.64 -790.23,-113.22 -1520.5,-329.04 -2176.67,-647.45 -666.77,-325.49 -1255.92,-760.66 -1746.29,-1312.6 -1788.61,-2002.5 -1972.06,-5172.54 -829.04,-8675.15 1181.82,-3622.9 3778.32,-7578.38 7503.72,-11003.16 3725.4,-3428.31 7856.51,-5660.79 11521.94,-6499.29 3549.01,-813.73 6635.87,-314.88 8424.49,1687.63 497.42,555.46 867.85,1195.84 1121.85,1903.43 246.95,686.37 384.53,1447.04 416.28,2257.24l0 0c-3273.84,4058.08 -7073.33,8123.23 -11324.38,12032.71l0 0z" /><g
   id="g1120"
   style="display:block" />
 <path
   style="fill-rule:evenodd;stroke:#ffffff;stroke-width:5000;stroke-linecap:round;stroke-miterlimit:4;stroke-dasharray:none;paint-order:stroke fill markers;stop-color:#000000"
   d="M 2957.3504,2932.7454 96842.311,96649.586"
   id="path1799"
   sodipodi:nodetypes="cc" /><path
   style="clip-rule:evenodd;fill-rule:evenodd;stroke:#ffffff;stroke-width:5000;stroke-linecap:round;stroke-miterlimit:4;stroke-dasharray:none;paint-order:stroke fill markers;image-rendering:optimizeQuality;shape-rendering:geometricPrecision;text-rendering:geometricPrecision;stop-color:#000000"
   d="M 96579.625,3221.5891 3362.5666,96605.877"
   id="path1799-6"
   sodipodi:nodetypes="cc" /></g>
</svg>
